<svg xmlns="http://www.w3.org/2000/svg" width="933.333" height="933.333" version="1.0" viewBox="0 0 700 700"><path d="M362.1 35.6c-1.4.6-3.2 2.3-3.9 3.8-.9 2.1-1.2 56.3-1.2 247.2v244.6l2.9 2.9 2.9 2.9h72.1l2.8-2.4 2.8-2.4.2-245.7.2-245.6-2.9-3.2-2.8-3.2H400c-23.9 0-36 .3-37.9 1.1zM643.7 34.6c-.1.1-4.7.5-10.2.9-5.5.4-10.2.8-10.5 1-.3.2-3 .6-6 1-7.6.9-30.4 6.9-36.4 9.5-12.6 5.4-24.9 16.1-31.9 27.8-4.2 6.8-9.1 20.9-11.7 33.6-1 5-2.2 10.4-2.5 12.1-.4 1.6-.9 12.9-1.2 25-.3 12.1-.9 22.4-1.5 23-.5.6-10.4 1-25.4 1.1h-24.5l-2.6 2.7-2.7 2.6v30c-.1 16.5.2 31.3.6 32.8 1.4 5.4 3.1 5.7 29.4 5.8 13.2.1 24.6.5 25.2.9.9.5 1.2 34.1 1.2 143.2 0 106.5.3 143.1 1.2 144.7 2.4 4.6 2.4 4.6 40.6 4.7h36.3l2.4-2.5c1.6-1.5 2.5-3.6 2.6-5.7 0-1.8.1-66.2.1-143 .1-76.8.5-140.3.9-140.9.6-1 9.9-1.3 38.6-1.4 20.8-.1 38.5-.5 39.4-.9 3.9-1.8 4.3-4.6 4.4-35.4 0-16.9-.4-30.9-.9-32.4-.5-1.4-2-3.1-3.3-3.7-1.6-.7-15.2-1.1-39.5-1.1-21.3 0-37.5-.3-38.1-.9-.5-.5-1-5.3-1.2-10.7-.7-23.3 6.3-41.1 19-48 12-6.6 16.5-7.5 38.3-7.4 19.4.1 22.6-.7 23.9-6 .5-1.7.8-14.8.8-29.3-.1-24.4-.2-26.5-2-29-1.1-1.5-2.9-2.9-4-3.2-1.7-.4-48.4-1.2-48.8-.9zM141.9 159.5c-.2.2-2.9.6-5.8 1-3 .3-5.7.8-6 .9-.3.2-2.3.7-4.3 1-6.5 1-18.4 4.5-26.2 7.6-20.6 8.1-35.8 17.6-51.6 32.2-8.6 7.9-22.1 26.1-28 37.7-6.1 12.2-14.8 41.3-16.5 55.6-.4 2.7-.8 5.7-1 6.5-2 7.7-2.9 67.2-1.2 80.5 3.6 28.9 9.8 51.9 19.1 71 14.5 29.6 38.9 53.4 69.6 67.9 23.3 11 43.8 15.3 73.1 15.3 20.1 0 31.7-1.3 47.1-5.2 45.7-11.7 79.7-37.3 97.3-73 6.2-12.8 8.7-19.9 11-31.1 1.8-9.2 1.4-12.1-2-14.6-2-1.5-12.4-3.7-25.1-5.4-1.7-.2-10.5-1.5-19.5-3-28.7-4.5-29-4.5-31.9-1.9-1 .9-2.8 5.2-3.9 9.5-2.9 10.5-5.5 16.2-10.7 23.7-10.4 14.6-27.6 24.8-48.9 28.8-7.4 1.3-26.1.5-34-1.5-25.3-6.5-44-24.9-51.4-50.5-2-7.1-2.4-8.7-4.1-20.5-.6-3.6-1.3-7.9-1.6-9.5-.3-1.7-.7-15.6-.9-31-.2-26.6 0-30.1 3-50.5 1.2-8.3 5.6-24.4 8.1-29.9 7.8-17.2 22.9-30.4 42.1-36.8 6.5-2.1 10.3-2.6 22.5-3.1 9.9-.3 16.3-.1 19.5.8 2.6.6 5.9 1.4 7.3 1.7 4.5.8 17.6 6.9 23.6 11 6.9 4.7 13.6 11.7 18.3 19.1 3.8 6 8.8 19.4 9.7 26.4.7 5 3.5 8.5 7.3 9.3 1.2.2 6.1-.2 10.9-1 4.8-.8 11.4-1.7 14.7-2.1 3.3-.3 6.2-.8 6.5-.9.3-.2 3-.6 6-1 3-.3 6.2-.8 7-1 .8-.2 4-.7 7-1 3-.3 6.2-.8 7-1 .8-.2 3.5-.7 6-1 10.8-1.5 12.2-6.4 7.1-26.3-6.8-26.3-22.1-50.3-43.1-67.3-20.6-16.8-53.9-32-77.5-35.4-2.3-.3-5.2-.8-6.5-1.2-2.7-.7-48.5-1.5-49.1-.8zM263.7 587.7c-.1.1-8.2.4-18 .8-9.7.3-20.5.8-24 1-3.4.2-10.2.7-15.2 1-15.1.9-20.7 1.3-27.5 2-3.6.3-8.5.8-10.9 1-11.2 1-20.1 1.9-28.8 3-2.1.2-6.3.7-9.3 1-3 .3-6.6.7-8 1-1.4.2-4.6.7-7.2 1-2.6.2-5.8.7-7 .9-1.3.3-4.5.8-7.3 1.1-4.7.6-27.1 4-32.5 5-1.4.3-4.4.8-6.8 1-8.1 1.1-27.2 6.3-35 9.7C9 624.7 1.9 631.6 1.2 642c-1 13.3 9.3 22.9 24.7 23.1 7.2.1 13.4-1.2 56.1-12 30.2-7.6 55.2-13.2 69.1-15.6 1.9-.3 4.1-.8 4.9-1 .8-.2 3.7-.6 6.4-1 2.7-.3 5.2-.8 5.5-.9.3-.2 2.9-.7 5.6-1 9.8-1.3 24.7-3.4 29.5-4.1 1.4-.2 5.2-.7 8.5-1 3.3-.3 7.1-.8 8.5-1 1.4-.2 5-.6 8-1 10.6-1.1 15.5-1.6 19-2 1.9-.3 7.1-.7 11.4-1.1 4.4-.3 8.7-.7 9.6-.9.9-.2 6.6-.6 12.6-1s12-.8 13.4-1c1.4-.2 7.9-.7 14.5-1 6.6-.4 14.3-.8 17-1 41.7-2.7 127.1-2.7 165 0 2.8.2 9.1.6 14 1 5 .3 10.4.8 12 1 1.7.2 6.4.7 10.5 1 4.1.3 9.5.8 12 1.1 14.7 1.6 15.3 1.6 30 3.4 4.1.5 10 1.2 13 1.5 3 .4 6.6.8 8 1 1.4.2 5 .7 8 1 5.3.5 18.8 2.2 24 3 1.4.2 5 .6 8.1 1 3.1.3 6.5.7 7.5.9 1.1.2 4.6.7 7.9 1.2 3.3.4 6.2.8 6.5.9.3.1 3.4.5 7 .9 3.6.5 7.4 1 8.5 1.2 1.1.2 3.8.6 6 .9 2.2.2 7.6 1.1 12 2 9.9 1.8 14.5 1.2 14.5-2 0-1.8-4.7-5.1-8.5-5.8-1.6-.3-12.2-2.6-23.5-5-11.3-2.5-22.5-4.8-25-5.3-2.5-.4-4.7-.8-5-.9-.3-.1-2.5-.5-5-1s-4.7-.9-5-1c-2.7-.5-9-1.8-11-2.2-12.7-2.3-29.1-5.3-31.5-5.6-1.6-.3-7.5-1.3-13-2.1-5.5-.9-14-2.3-19-3.1-4.9-.8-10.8-1.7-13-2-2.2-.3-5.3-.7-7-1-4.9-.7-9.5-1.4-18.5-2.5-4.7-.6-9.8-1.2-11.5-1.5-7.9-1.1-27.3-3.3-34.8-4-3.7-.4-7.6-.8-8.5-1-.9-.1-5.7-.6-10.7-.9-4.9-.4-10.1-.9-11.5-1.1-1.4-.2-6.8-.6-12-1s-11.1-.8-13-1c-1.9-.2-8.9-.6-15.5-1s-14.5-.8-17.5-1c-21.7-1.3-115.3-2.8-116.3-1.8z"/></svg>