<svg xmlns="http://www.w3.org/2000/svg" width="19.91" height="19.576" viewBox="0 0 19.91 19.576"><path d="M15.475 12.669a.966.966 0 0 0-.967.967v3.038a.968.968 0 0 1-.967.967H2.9a.968.968 0 0 1-.967-.967V4.101a.968.968 0 0 1 .967-.967h5.621a.967.967 0 1 0 0-1.934H2.9A2.905 2.905 0 0 0 0 4.1v12.574a2.905 2.905 0 0 0 2.9 2.9h10.641a2.9 2.9 0 0 0 2.9-2.9v-3.038a.966.966 0 0 0-.967-.967"/><path d="M18.829 1.076a3.723 3.723 0 0 0-5.228-.009L7.053 7.615a5.048 5.048 0 0 0-1.482 3.584v2.167a.966.966 0 0 0 .967.967h2.168a5.048 5.048 0 0 0 3.585-1.483l6.539-6.539a3.709 3.709 0 0 0 0-5.235m-7.905 10.406a3.125 3.125 0 0 1-2.219.917h-1.2V11.2a3.125 3.125 0 0 1 .916-2.218l4.317-4.317 2.5 2.5Zm6.537-6.537-.856.855-2.5-2.5.854-.854a1.769 1.769 0 0 1 2.5 2.5"/></svg>