<svg xmlns="http://www.w3.org/2000/svg" width="24.359" height="21.214" viewBox="0 0 24.359 21.214"><defs><clipPath id="a"><path fill="#fff" d="M0 0h24.359v21.214H0z"/></clipPath></defs><g fill="#fff" clip-path="url(#a)"><path d="M19.14 21.214H5.22A5.22 5.22 0 0 1 0 15.994v-3.48a1.044 1.044 0 0 1 2.088 0v3.48a3.132 3.132 0 0 0 3.132 3.132h13.92a3.132 3.132 0 0 0 3.132-3.132v-3.48a1.044 1.044 0 0 1 2.088 0v3.48a5.22 5.22 0 0 1-5.22 5.22"/><path d="M12.18 14.616a1.044 1.044 0 0 1-1.044-1.044V1.044a1.044 1.044 0 0 1 2.088 0v12.528a1.058 1.058 0 0 1-1.044 1.044"/><path d="M12.18 16.341a1.016 1.016 0 0 1-.738-.306l-5.9-5.9a1.03 1.03 0 0 1 0-1.475 1.044 1.044 0 0 1 1.476 0l5.164 5.164 5.164-5.164a1.044 1.044 0 1 1 1.475 1.475l-5.9 5.9a1.029 1.029 0 0 1-.738.306Z"/></g></svg>