<svg xmlns="http://www.w3.org/2000/svg" width="20.178" height="21.212" viewBox="0 0 20.178 21.212"><path d="M19.4 3.1h-5.431V2.07A2.069 2.069 0 0 0 11.951 0H8.226a2.07 2.07 0 0 0-2.018 2.018V3.1H.776a.776.776 0 0 0 0 1.552h1.341l.894 13.6a3.156 3.156 0 0 0 3.1 2.959h7.947a3.156 3.156 0 0 0 3.146-2.959l.855-13.6H19.4a.776.776 0 0 0 0-1.552M7.761 2.07a.466.466 0 0 1 .465-.47h3.725a.466.466 0 0 1 .466.466V3.1H7.761Zm7.906 16.09a1.614 1.614 0 0 1-1.6 1.5H6.115a1.6 1.6 0 0 1-1.6-1.5l-.8-13.5 12.79.052Z"/><path d="M13.193 17.073a.786.786 0 0 0 .776-.776V8.019a.776.776 0 1 0-1.552 0v8.278a.786.786 0 0 0 .776.776M6.984 17.073a.786.786 0 0 0 .776-.776V8.019a.776.776 0 0 0-1.552 0v8.278a.786.786 0 0 0 .776.776M10.089 17.073a.786.786 0 0 0 .776-.776V8.019a.776.776 0 0 0-1.552 0v8.278a.786.786 0 0 0 .776.776"/></svg>