<svg xmlns="http://www.w3.org/2000/svg" width="167.137" height="49.089" viewBox="0 0 167.137 49.089"><defs><clipPath id="a"><path fill="none" d="M0 0h167.137v49.089H0z"/></clipPath></defs><path fill="#696a6c" d="M68.685 3.991h.097v35.23h-.097z"/><path fill="#696a6d" d="M68.603 3.907h.261v35.395h-.261z"/><g clip-path="url(#a)"><path fill="#696a6c" d="M87.935 13.962c-.309-1.393-1.018-1.87-2.115-1.87-1.366 0-2.115.851-2.115 3.057v.98c0 2.2.749 3.057 2.115 3.057 1.161 0 1.819-.567 2.115-1.87h1.072a2.983 2.983 0 0 1-3.187 2.876c-1.973 0-3.224-1.187-3.224-4.063v-.98c0-2.877 1.251-4.063 3.224-4.063a2.99 2.99 0 0 1 3.2 2.876ZM95.331 17.277c0 1.677-.825 2.915-2.683 2.915-1.715 0-2.682-1.135-2.682-2.915v-.851c0-1.832.993-2.889 2.682-2.889s2.683 1.044 2.683 2.889Zm-1.032 0v-.851c0-1.226-.594-1.961-1.651-1.961S91 15.213 91 16.426v.851c0 1.109.465 1.986 1.651 1.986 1.1 0 1.651-.889 1.651-1.986M96.73 13.639h1.031v.633a1.781 1.781 0 0 1 1.728-.735c1.381 0 2.348.722 2.348 2.528v4.024h-1.032v-4.011c0-1.3-.709-1.586-1.47-1.586a1.5 1.5 0 0 0-1.574 1.573v4.024H96.73ZM107.182 15.149a1.689 1.689 0 0 0-1.6-.658c-.76 0-1.251.3-1.251.864 0 .735.646.955 1.5 1.019 1.213.091 2.322.438 2.322 1.922 0 1.122-.761 1.9-2.424 1.9a2.733 2.733 0 0 1-2.49-1.071l.761-.545a1.887 1.887 0 0 0 1.74.658c.865 0 1.381-.336 1.381-.916 0-.7-.413-.942-1.664-1.032-1.084-.077-2.154-.516-2.154-1.922 0-1.071.774-1.831 2.308-1.831a2.5 2.5 0 0 1 2.348 1.07ZM114.306 19.108a2.268 2.268 0 0 1-2.258 1.084 2.624 2.624 0 0 1-2.759-2.915v-.851c0-1.832.863-2.89 2.554-2.89s2.553 1.045 2.553 2.89v.67h-4.076v.181c0 1.109.529 1.986 1.651 1.986a1.531 1.531 0 0 0 1.536-.722Zm-3.986-2.915h3.032c-.052-1.083-.529-1.728-1.509-1.728s-1.459.658-1.523 1.728M119.444 15.032a1.229 1.229 0 0 0-1.084-.541 1.4 1.4 0 0 0-1.381 1.56v4.037h-1.031v-6.449h1.031v.632a1.569 1.569 0 0 1 1.5-.735 2.05 2.05 0 0 1 1.845.878ZM126.606 13.639l-2.58 6.449H123l-2.632-6.449h1.16l1.962 5.134 1.96-5.134ZM129.708 16.361h1.534v-.748c0-.916-.426-1.122-1.432-1.122-.773 0-1.186.064-1.548.658l-.774-.542a2.359 2.359 0 0 1 2.335-1.071c1.638 0 2.45.529 2.45 2.077v4.475h-1.031v-.632c-.362.594-.8.736-1.638.736-1.5 0-2.309-.736-2.309-1.986 0-1.394.994-1.845 2.413-1.845m1.534.877h-1.534c-1.02 0-1.381.349-1.381.993 0 .723.516 1.006 1.277 1.006.954 0 1.638-.18 1.638-1.625ZM133.426 13.639h.825v-1.417h1.032v1.417h1.483v.93h-1.483v3.275c0 .891.1 1.264.967 1.264h.516v.981h-.554c-1.523 0-1.961-.645-1.961-1.986v-3.534h-.825ZM138.227 11.189h1.161v1.161h-1.161Zm.064 2.45h1.032v6.449h-1.032ZM146.278 17.277c0 1.677-.825 2.915-2.683 2.915-1.715 0-2.682-1.135-2.682-2.915v-.851c0-1.832.993-2.889 2.682-2.889s2.683 1.044 2.683 2.889Zm-1.032 0v-.851c0-1.226-.594-1.961-1.651-1.961s-1.651.748-1.651 1.961v.851c0 1.109.465 1.986 1.651 1.986 1.1 0 1.651-.889 1.651-1.986M147.675 13.639h1.031v.633a1.781 1.781 0 0 1 1.728-.735c1.381 0 2.348.722 2.348 2.528v4.024h-1.032v-4.011c0-1.3-.709-1.586-1.47-1.586a1.5 1.5 0 0 0-1.574 1.573v4.024h-1.031ZM84.156 32.8h4.257v1.006h-5.365v-8.9h1.108ZM91.385 30.082h1.534v-.748c0-.916-.426-1.122-1.432-1.122-.773 0-1.186.064-1.548.658l-.774-.542a2.358 2.358 0 0 1 2.335-1.07c1.638 0 2.45.528 2.45 2.076v4.475h-1.031v-.632c-.362.594-.8.736-1.638.736-1.5 0-2.309-.736-2.309-1.986 0-1.394.994-1.845 2.413-1.845m1.534.877h-1.534c-1.02 0-1.381.349-1.381.993 0 .723.516 1.006 1.277 1.006.954 0 1.638-.18 1.638-1.625ZM97.735 33.81h-.9l-1.871-6.449h1.1l1.29 4.527 1.625-4.527h.864l1.716 4.566 1.289-4.566h1.1l-1.871 6.449h-.9l-1.727-4.824ZM113.842 24.91v1.006h-4.257v2.992h3.869v1.006h-3.869v3.9h-1.109v-8.9ZM120.153 31c0 1.677-.825 2.915-2.683 2.915-1.715 0-2.682-1.135-2.682-2.915v-.851c0-1.832.993-2.889 2.682-2.889s2.683 1.044 2.683 2.889Zm-1.032 0v-.851c0-1.226-.594-1.961-1.651-1.961s-1.651.748-1.651 1.961V31c0 1.109.465 1.986 1.651 1.986 1.1 0 1.651-.889 1.651-1.986M126.659 33.81h-1.032v-.632a1.782 1.782 0 0 1-1.729.736c-1.379 0-2.346-.723-2.346-2.529v-4.024h1.031v4.011c0 1.3.71 1.587 1.471 1.587a1.5 1.5 0 0 0 1.573-1.574v-4.024h1.032ZM128.379 27.361h1.031v.632a1.781 1.781 0 0 1 1.728-.735c1.381 0 2.348.722 2.348 2.528v4.024h-1.032V29.8c0-1.3-.709-1.586-1.47-1.586a1.5 1.5 0 0 0-1.574 1.573v4.023h-1.031ZM139.217 24.91h1.032v8.9h-1.032v-.567a2.044 2.044 0 0 1-1.754.671c-1.754 0-2.579-1.238-2.579-2.915v-.851c0-1.845.98-2.89 2.579-2.89a2 2 0 0 1 1.754.749Zm0 6.178v-.941c0-1.213-.594-1.961-1.651-1.961s-1.651.735-1.651 1.961V31c0 1.1.556 1.986 1.651 1.986 1.148 0 1.651-.826 1.651-1.9M144.061 30.082h1.539v-.748c0-.916-.426-1.122-1.432-1.122-.773 0-1.186.064-1.548.658l-.774-.542a2.358 2.358 0 0 1 2.335-1.07c1.638 0 2.45.528 2.45 2.076v4.475H145.6v-.632c-.362.594-.8.736-1.638.736-1.5 0-2.309-.736-2.309-1.986 0-1.394.994-1.845 2.413-1.845m1.534.877h-1.534c-1.02 0-1.381.349-1.381.993 0 .723.516 1.006 1.277 1.006.954 0 1.638-.18 1.638-1.625ZM147.78 27.361h.825v-1.418h1.032v1.418h1.483v.929h-1.483v3.276c0 .89.1 1.264.968 1.264h.515v.98h-.554c-1.523 0-1.961-.645-1.961-1.986V28.29h-.825ZM152.58 24.91h1.161v1.161h-1.161Zm.064 2.45h1.032v6.449h-1.032ZM160.631 31c0 1.677-.825 2.915-2.683 2.915-1.715 0-2.682-1.135-2.682-2.915v-.851c0-1.832.993-2.889 2.682-2.889s2.683 1.044 2.683 2.889Zm-1.031 0v-.851c0-1.226-.594-1.961-1.651-1.961s-1.651.748-1.651 1.961V31c0 1.109.465 1.986 1.651 1.986 1.1 0 1.651-.889 1.651-1.986M162.029 27.361h1.031v.632a1.781 1.781 0 0 1 1.728-.735c1.381 0 2.348.722 2.348 2.528v4.024H166.1V29.8c0-1.3-.709-1.586-1.47-1.586a1.5 1.5 0 0 0-1.574 1.573v4.023h-1.031ZM5.248 36.88a11.432 11.432 0 0 1-4.355-5.946 20.5 20.5 0 0 1-.893-6.7 20.382 20.382 0 0 1 .893-6.588 10.843 10.843 0 0 1 4.327-5.835 12.917 12.917 0 0 1 7.453-2.149 13.285 13.285 0 0 1 7.594 2.178 9.91 9.91 0 0 1 4.689 7.26v.111a.64.64 0 0 1-.614.67l-5.024.726h-.112a.67.67 0 0 1-.67-.558 1.463 1.463 0 0 0-.056-.447q-.112-.446-.223-.782a4.826 4.826 0 0 0-2.01-2.568 6.294 6.294 0 0 0-3.574-1.005 5.9 5.9 0 0 0-3.6 1.089 5.253 5.253 0 0 0-1.983 2.985 17.386 17.386 0 0 0-.558 4.969 20.006 20.006 0 0 0 .5 4.969 5.867 5.867 0 0 0 2.009 3.1 5.682 5.682 0 0 0 3.632 1.141 6.161 6.161 0 0 0 3.658-1.089 4.9 4.9 0 0 0 1.982-2.931.636.636 0 0 0 .055-.279.226.226 0 0 0 .056-.167q.168-.67.782-.559l5.025.782a.92.92 0 0 1 .474.251.578.578 0 0 1 .14.531c-.112.595-.2 1.024-.279 1.284a9.959 9.959 0 0 1-4.3 5.667 13.684 13.684 0 0 1-7.594 2.093 12.542 12.542 0 0 1-7.425-2.2M27.973 38.89a.643.643 0 0 1-.2-.475V.673a.642.642 0 0 1 .2-.474.646.646 0 0 1 .474-.2h5.137a.65.65 0 0 1 .475.2.645.645 0 0 1 .2.474v37.742a.666.666 0 0 1-.67.67h-5.142a.641.641 0 0 1-.474-.195M54.214 10.695a.649.649 0 0 1 .195.475v4.41a.666.666 0 0 1-.67.67h-5.527a.247.247 0 0 0-.279.279v21.886a.667.667 0 0 1-.67.67h-5.137a.667.667 0 0 1-.67-.67V16.529a.247.247 0 0 0-.279-.279h-3.461a.668.668 0 0 1-.671-.67v-4.41a.668.668 0 0 1 .671-.67h3.461a.247.247 0 0 0 .279-.28V9.215A13.31 13.31 0 0 1 42.4 3.6 5.509 5.509 0 0 1 45.532.785 17.1 17.1 0 0 1 51.673 0h1.955a.649.649 0 0 1 .472.2.646.646 0 0 1 .2.474v3.907a.667.667 0 0 1-.67.67h-1.454a4.568 4.568 0 0 0-3.322.95 4.979 4.979 0 0 0-.921 3.461v.558a.247.247 0 0 0 .279.28h5.527a.649.649 0 0 1 .475.195"/><path fill="#a10031" d="M54.44 47.133c-.051.235-.512.183-.7.147-.951-.185-1.343-.2-2.166-.326q-1.365-.2-2.731-.386c-1.777-.24-3.568-.443-5.334-.639a97.318 97.318 0 0 0-10.268-.686 133.1 133.1 0 0 0-19.875 1.382c-1.784.265-3.629.674-5.43 1.084s-3.577.984-5.39 1.33a2.585 2.585 0 0 1-1.766-.264A1.6 1.6 0 0 1 .666 46.1a7.125 7.125 0 0 1 2.793-1.211c.364-.093.737-.179 1.1-.242 16.593-2.89 32.956-1.654 49.4 2.051.129.029.545.154.484.436"/></g></svg>