<svg xmlns="http://www.w3.org/2000/svg" width="28.431" height="27.175" viewBox="0 0 28.431 27.175"><defs><clipPath id="a"><path fill="#747474" stroke="#fff" d="M0 0h28.431v27.175H0z" /></clipPath></defs><g fill="#747474" stroke="#fff" clip-path="url(#a)" ><path d="M.202 5.408 4.002.66A1.759 1.759 0 0 1 5.371 0 1.614 1.614 0 0 1 6.71 2.52L5.475 4.355h21.362a1.58 1.58 0 1 1 0 3.159H5.475L6.71 9.348a1.614 1.614 0 0 1-1.336 2.52 1.759 1.759 0 0 1-1.373-.66L.202 6.46a.842.842 0 0 1 0-1.052" /><path d="M1.58 17.871h25.272a1.58 1.58 0 1 0 0-3.159H1.58a1.58 1.58 0 1 0 0 3.159" /><path d="M1.63 27.175h25.172a1.58 1.58 0 1 0 0-3.159H1.63a1.58 1.58 0 1 0 0 3.159" /></g></svg>