<svg xmlns="http://www.w3.org/2000/svg" width="28.431" height="27.175" viewBox="0 0 28.431 27.175"><defs><clipPath id="a"><path fill="#747474" stroke="#fff" d="M0 0h28.431v27.175H0z"/></clipPath></defs><g fill="#747474" stroke="#fff" clip-path="url(#a)" ><path d="M28.232 5.408 24.434.66A1.759 1.759 0 0 0 23.061 0a1.614 1.614 0 0 0-1.336 2.52l1.235 1.834H1.594a1.58 1.58 0 1 0 0 3.159h21.362l-1.234 1.835a1.614 1.614 0 0 0 1.336 2.52 1.759 1.759 0 0 0 1.373-.66l3.8-4.748a.842.842 0 0 0 0-1.052" data-name="Path 678"/><path d="M26.852 17.871H1.58a1.58 1.58 0 1 1 0-3.159h25.272a1.58 1.58 0 1 1 0 3.159" /><path d="M26.802 27.175H1.63a1.58 1.58 0 1 1 0-3.159h25.172a1.58 1.58 0 1 1 0 3.159" /></g></svg>